<mxfile host="65bd71144e">
    <diagram id="kcAnNbXxDnus5WYj4F9D" name="Page-1">
        <mxGraphModel dx="1280" dy="626" grid="0" gridSize="10" guides="1" tooltips="1" connect="1" arrows="1" fold="1" page="1" pageScale="1" pageWidth="1600" pageHeight="900" math="0" shadow="0" adaptiveColors="simple">
            <root>
                <mxCell id="0"/>
                <mxCell id="1" parent="0"/>
                <mxCell id="12" value="routes" style="text;strokeColor=none;align=center;fillColor=none;html=1;verticalAlign=middle;whiteSpace=wrap;rounded=0;strokeWidth=1;fontFamily=Comic Sans MS;fontSize=36;fontColor=#009900;" vertex="1" parent="1">
                    <mxGeometry x="535.25" y="345.07" width="224" height="59" as="geometry"/>
                </mxCell>
                <mxCell id="14" value="frontend" style="text;strokeColor=none;align=center;fillColor=none;html=1;verticalAlign=middle;whiteSpace=wrap;rounded=0;strokeWidth=1;fontFamily=Comic Sans MS;fontSize=36;" vertex="1" parent="1">
                    <mxGeometry x="272" y="487.11" width="224" height="59" as="geometry"/>
                </mxCell>
                <mxCell id="15" value="controller" style="text;strokeColor=none;align=center;fillColor=none;html=1;verticalAlign=middle;whiteSpace=wrap;rounded=0;strokeWidth=1;fontFamily=Comic Sans MS;fontSize=36;fontColor=#FF8000;" vertex="1" parent="1">
                    <mxGeometry x="781.25" y="345.07" width="224" height="59" as="geometry"/>
                </mxCell>
                <mxCell id="16" value="middleware" style="text;strokeColor=none;align=center;fillColor=none;html=1;verticalAlign=middle;whiteSpace=wrap;rounded=0;strokeWidth=1;fontFamily=Comic Sans MS;fontSize=36;fontColor=#66B2FF;" vertex="1" parent="1">
                    <mxGeometry x="648" y="271.02" width="224" height="59" as="geometry"/>
                </mxCell>
                <mxCell id="17" value="service" style="text;align=center;html=1;verticalAlign=middle;whiteSpace=wrap;rounded=0;strokeWidth=9;fontFamily=Comic Sans MS;fontSize=36;labelBackgroundColor=none;fontColor=#FF6666;textShadow=0;fillColor=none;strokeColor=none;" vertex="1" parent="1">
                    <mxGeometry x="1034.25" y="345.07" width="224" height="59" as="geometry"/>
                </mxCell>
                <mxCell id="18" value="" style="rounded=1;whiteSpace=wrap;spacingTop=0;strokeWidth=4;fillColor=none;" vertex="1" parent="1">
                    <mxGeometry x="286" y="473.61" width="196" height="86" as="geometry"/>
                </mxCell>
                <mxCell id="19" value="/api/twit" style="text;strokeColor=none;align=center;fillColor=none;html=1;verticalAlign=middle;whiteSpace=wrap;rounded=0;textShadow=0;fontColor=#FFC6C6;fontSize=25;fontFamily=Comic Sans MS;fontStyle=2" vertex="1" parent="1">
                    <mxGeometry x="566.25" y="379.96" width="162" height="66" as="geometry"/>
                </mxCell>
                <mxCell id="28" value="" style="shape=stencil(lVzJch03DPwaXVkkwfWcOP/hKjuxKo6dsp3t7wNG4bxhY6Zp3bwAIy5YGg1QT/LD1w9vf3//FP3Xb18+//r+r+d33z48yY9PMT5/+vD+y/M3/dOTvHmSH37+/OX9L18+//Hp3cvff387JMeffvv85/jC3y96xZU6lKL/5+UfxIX43z/89CL+8fnTIl7jIp5c4uJ9Ec8uBybe8iJeXO5UvC3i1TW6mLZutbvQqLgs4sG7QuVrWuWjE7r6Ulb5tDn6vB5OKM57Jp9AvrlAD1/W04zeCf2+rOcToyt0/f9/7ZBPrtPzjOt16fVGep5x3a/e7/8nfCPv1/OX6ILcy2fX1vWL2j5Zz2Hqh3yZX7iRj/D97jy5r+z8ej4pOE/OU+XBddXVyfr1dlbfTdkJWc9xm4d8dULOX+Vh/d2l18jn4DLZr5UXV/n6QV5vPL1GvrpO7tfKd9eJvRn5Elx7zfkUmRHsRh5ic8muViYP8adU6l/Jefh+d5nIy/zfI5oHJ2Q9ar3rfiu35zhv85DXEyPriZjqqkZs+v26+m9tTjKVh/V01/j61+83PR8Sb8X59ftN4zNZjzgBeZkR4EYeknU7ItiNPaQ1XzTNUDRexTV+tjqxyl38h+83CgfqtK4DDniaTxvebw8zg1zKK1yAgNuj8+QCQphY6qTQyY6DXvG65S40RCjCAJvriZ6pQowCCnnCimuF5gosqdCsqiDDKlRyDdaPe503f62QMRB1HriGZWRUYEhlAA0wjTaD07XrxGlpJ4XIfNMEa1Vg4EzqzC1nBZbNgovRKLB0oEvKqJCY/zcEOEOBOOjI73YP5JQ0YftmjpXsITfEyKrAMJSmYNx0dZUpaI4JqEArJv2e8QcWBKo3m+ZxtR5R6OTTLBFqXkWPy7NWuFYo80xOcakT49NMmcC8I809zSN475EH7+AK3IOnx6rJL0B667N+vFbQ/LbmE80/lWxa0yXYkiY4Bmj1vyFqtKMGu1ZQ619PSX+mZ0tShLYGAT2GSn6CHiLEJQUZkexhXBOckneNoHK1nLBenMKkRPbQjyr6UKgUV6kChMpaaNRQ64dTqsfdXyuUSTQcCpFm0W64AfVyVhtpUIFjLY0vqSIaK2WnkAHO66bZxVVklkqk9eOIpOtNF08BfTehUuN5YKZREf7kQimRobC6aFbrImHmQiFSJHCh4CleGgqraWhe9a9TyDMnfa+C0BzXj7B1YiIYqlQFoI5EAw+/OEhZim+o8RWXgdbM3DQKgnXFaCzcaxCA2Cqe0l8aZhLwX2364F3kAwJplDg8toKLas0V2ZLCJDRPFB6NfB5vWuE7ixqaUKDI0gKhssTepvUfCtUFEvk0BTagUfOsWe7SbgKe9mAq7pBAN8QuIwI0BcJNa2WXyT2MFLgan9aODCRqChTAS9QdFF8BXGqUihkADlIiPdOakTso1HmqOaE8of41KO7ozonWiKWgJyRaeWtmasDV0vPUPAOoPs5WxHcWJpFTH2E6+kOetSrSEQ0f8gwNa0AHBBMoGE4ekSdnMqTY82HFp8h0qIc8oyI11AJ6EZoDo8EiQtN4PJLFSZ744+h8FJQn+40HsDnJM1bFIB2hQTHY5ERRiAa0atZD7E3Dk0SUJxHRIDuhdXyfl/993jWCJa6eFfEajTHXU6ZD5aFzxYuiIb9ul4PGsZ4E8pRj88iLHFTMzXFCduG8d0dfz5TmbOgqmYaGipkiUTBaEKGkTQ824lZZC6ogf5o2HdWAdlNY1kJCQGj/0mLcaaY34s2kIAZ7MELxCNsN9qS9JDXJiHtlJ6nyzZwNd8GIAblwlxKUp0x6mPH0ZDjkNHX9FS2HUcrBkHSJ9go75v8Nb4ONg6M3fGM6Bh1RhvF14tEePcttejEIRRgJVhD5BpqZO567p+FmAPWC8uTzo3SIKM/8pGCq2si3GapP8gxYBARGnvc4ZVJjJ3l2twVbI553RhpyCVxeTGrm+xVTm3ne46wILTwH1gGBI+8RpmzthwHT1HGEibM/g35CeUaGZtNz8bQwKxG/HyjTr4WWmMKDJS2PwDTyHq1gg4ZTUVqIAmvPScpHS/8ROVmw0kIamsyb1knH7xcKZZvJi5XODLWI7Hij0LQJFt6dwoCWMD4E7pDNxudIOahWcYwgCGdXOs55jWqH0cSmWAzHnOEtLQb8TXOZZeuIJK66Gdt0N7MTw28YtZewozagKuMzs6moN1S3oUwi752ODgK4pqekRje+IxsM2kxVymuL3g0K5SNoqgAzTdLpTJ8qAOoeGYKRuN1M0W3IdKuwoeutwqYhYBR2LQersGlqWIVNBewNwbTpzFxp8ObPhcauv2S2MTpYzK1VAUbkEu9VdpwxHswlV8hAtLZpwrcuAUyup9SvOh1moEiHsMdMxnpKNc1e+13ggEFFzcKM/X3M9xwKfFqmFyyfNqN13c6aBTpe0w3u10xM3ToiCaOplf4Ek4Ra5pHGY6tFczHDJppIETsc8wK3qRqW1Hn3x4yUj3kBBmcS/gQ9Bjp0IUikjsERBoCCmTThnI9aDo79JTqaUisWtGpdzPhqxhqvF9o+HfM4sKRKbakGpPv75qVEw6ba8HJGdWUzWNjoWIdGUujCdf4aQ6M7INHe6VuSnLE0UYVKNp2DuelOcaLmWTS+TsFxsuOXnbroGMozS6L1c8V68pT2rjWSeYay0wiosdnFqEnaaw72AVXPd81Go8V4daezyA/a5WSvrOoIdkKNTwoGM47c+chCSNgFGGGA2GsIiDZ6pgNnWroFE8oYq9smeD7kZffAygRj/uKlQFgKky66dgfjDRzL2An4TqNYQLynCZEVWYaUboVW3x5fFIxZBGISHvtOjU8qeJPQI414BhC3QCe0DIldO2UzvHmhwbOIN7CtUDbvmIk7IU+GFrx5ASL0PAOWk/W48Rt5+H7hL5oiZqjxooZFLZyCGGmXtb2Rlti8CLLy/MWRkd+8aLLy/MWUlecvsqw8f/Fl5XnvwchvXqxZeU5HxItJPeaPEfNq4m37iNXmeDFIXygBMJU2U85NvAVmTgptTAv2sYU3vgXJ+/FikyEVTPKbF6Fiplb4i1PTPNm8aL1i/ViGNzh/8yJXsCm5efEr+Lhn86LYTg3xF8uGvN+8iBZsLm1eXItB+NT8jTgvgsx7OP4Y3TDr/Km74HAAf0hvZkH5QJJ5Sxk3jmvGrxhus36yeQga8OuMskoYFfis3NFIP4mzjpidrOPiJb9iMRkRJN+q4an4QZrmMb+mgi/ruBG8+jdBbMT1D49fOvHz88ePL7+z4vz/+Esq9J9efsGFvPkX);lineShape=1;strokeColor=default;" vertex="1" parent="1">
                    <mxGeometry x="339.48087861369385" y="270.9964586725566" width="84.41771504350612" height="195.1846797943665" as="geometry"/>
                </mxCell>
                <mxCell id="29" value="" style="shape=stencil(lVfLctswDPwaXTHgmzyn6X9kJk7tqWtnHKdt/j5gVTIiZG0mN1nGigS4uwAnd/eyf3jeTZZfrpfzz92fw+N1P7lvk7WH0353OVzlaXL3k7t7Ol92Py7n19Pj/Pv5oUbWp1/n3/ULf2ecpVgqyPLb/MJFCv7fm+9z/PFwWsQncnmMz2TydryxxCPAGzIGACKVcUfeUyrbAEnBqhUKcQSARHlcIRiYg/M6h2AppW2AZwpmBDgqCCBlDSMgkAXHEPwKEMkBQDTk7AjwFMGWYiZeVck5wAzfqr44OBsAoJBXXArkwUlnR2nMwQZK4OByojACTKAMcihCvrGsTMwgXqik4wNIuWSKKmWKFsQXcmNNM2WQsMTnVcJIPIZ7gr2msiVUoqLV4wwFIDcBhHEFsQykHilSTppIiBcC0MwTU0I5JDJqBSk0MCXhhfaYRAURozN5kQMjZniddDVWVFavPcYxZQzwSj0W5+AbERZkQtZd+t8fbEWOIfFZpQBNT04harU5xIvUxLhQM1JPXlUI77+0E2rxYh9YzWlUgnHNxrcAZSSFZID6SAWMO5IjKFiccQTU/o9IITmPOXgLHUaK+r8vLaSDuq2cml+J02IT/hogZ+2S0h0NAvQJpAP6J24DuBG5AZK0Z7CCNM+opIM7g2xAdYYi5EYAo/1C9M2fjBhjDrXQ4ODqEDP6RRUUHpPUACDs8oCtdRBjDShoNkx6vF00vNsIQymukgB1lXnVK4CDezJyEOOecoEukFrj6PEe+rbVI3o2jSu3N9S6cY/n9oWNeDuqJ0mnAkRiSkoL0uvA/lkzO8lQBWyYddeJoVV4I16RKIpaQX24yWQxOaNGy7o+vvv+RnxQBhmIgWxYNwW5UaE529yYv5DKVjc2aQko369eIT+Pl4eP++rT4Xicr7vL//X9Vl7Nd2N3/w4=);lineShape=1;strokeColor=default;" vertex="1" parent="1">
                    <mxGeometry x="358.1078149665429" y="297.62924288674003" width="51.181901125374054" height="5.785018968878859" as="geometry"/>
                </mxCell>
                <mxCell id="30" value="" style="shape=stencil(lVfLctswDPwaXzF8gSTOafofmYlTe+rGGcfp4+8LVUPbIKNVfZOtBQlgsQC0iQ/vu6e37Sa49/Pp+H37a/983m3il00I+9fd9rQ/69MmPm7iw8vxtP12On68Ps+/354m5PT04/hzOuH3bOcppckouD/zH6mSuH//fJ3xh/3rDT5RYoOPjgrAC1WLr5T9Mtxn8tXgHXRHX0ff4R3CMxXu8Dkt42OgLDbe5uDn6XFUi8FnigXgpYV3zQ9KJys79nyvGZBlg1yoZGvgKYdlg8JUbUZ9IAaU1dDOuzFwGRhoCbg+BgEkSOmLTsiBpEqlMCYJhCDSiuZiEGHZqQF3WRVKyCXl2WZVCyMBGrxzvU8xkUNZUqlZHpInBleoQbI3qPYdqCXNa7F55UiOoUEXA2t1Afko0767QfWDiNDXtl9wooBc4l7QkwRRWpl8ZxCpIoNEEi1xmRgFPRhoExBE3OCStvEMFDcG7bkV8H+mVbtGQAYDcUIBKW6oDKEc7yk9bTIrguuK22sXQTcM8tFWL0ANnylUpykiemgCUcjf1WZSXhOcWKLZw3k7tUp7gyo0IJeGXqwKTXc17xWDcTyopBlQPQ4gbUsJZGkccVMfA0GPQ5TxfBjHtKbVg+ob9wDNEuoy46LBAonTTabYG3KA1TqtSraWMkNN6yqVLA9Z2wiacbnNpxsDNLG0CYmtJWWGQdClLXeX7Uo1i2igZEPWRuiBQ5dJcMFXquD82Irgupis7Kt9SqeWAEjzVDqHygred+cnWKeul1oVuMa4Nowv+EgFnu+s/6W0SbSEt0VdXFvwF/AdAVnXBehPsnhVtgdDYVRlaJ1gIf/3fX6t4/Xh+q33sj8c5k/F2/f9t6H+NX9Xxse/);lineShape=1;strokeColor=default;" vertex="1" parent="1">
                    <mxGeometry x="366.2978924987778" y="320.1566259664062" width="48.583273852125046" height="5.240269310892103" as="geometry"/>
                </mxCell>
                <mxCell id="31" value="" style="shape=stencil(rVfZctswDPwavWJIghee0/Q/MhOn9tSNM47T4+8LVaVqUNbanumbTO9KABYXB3543z69bYbg3k/Hw9fNj93zaTvwpyGE3et2c9yd9Gngx4EfXg7HzZfj4eP1efr99jQix6dvh+/jG35OvEBJRlJwv6aDRKH8Ofg8wfe71zN4oWzhTFzX4T5Q9AbvKTHA6/udwTtiYM74ed/hnQN4oSodXsI6ngulavBqYFrHx9Tb7zMFEKAUKQZDCJEEeJC56TMrMMfgsmKeCltCoZABQah0Ggsk1EzF+sAVRkk0qtkSMnkQJanEsfehApNEyFlCDFRAlJTQCZ0cBZAZShDrdJKm/eXUdnNqNkaWa05Uq5xKIyiu0idTrU3LtbhWWz6SKCKTKjkbJsG5oVIH6QkVCZEpWR/0FQ60DLW42oIQj5VLxNakGkhQlBJ5m0xFixBIvSTk0Iy80aTE5LBJndMxUkUVlFvfPStqj3xYCKc1ynelhhIECafJZ5WOjgqK0iK9Y6GICV0BJfUBjZ8LNZrbR1fbgK2gkikjIRaNRtvn31612sqsE8Jwho7NsiPoyZV2nAzhLA7/iTHOCBtYzUiUsOMUsjU0VhUoCZ1zuetlkTLIjjxX/UwIUDqd1V1Z10Ie9DLdBrjrx6EV+tq60c05DQNyernPlNLCcOPCVOqdG5kSPOgDy5VPTUKpsVgpiwoN0nWxsY7dGBlEYltlCXDF9W2jPRvTqPG5NsRnfISrhqNoNU6qALDHtWjMeN/SagXftbDIV+zv8Kzxv8ceVTDc46/HW8winp7boLhNL4HmL9Ihw+y58350Fa4P/65iL7v9frrJnf/fX930aLr28eNv);lineShape=1;strokeColor=default;" vertex="1" parent="1">
                    <mxGeometry x="376.93800060399093" y="343.3740964318108" width="46.97523568925931" height="3.605158133042181" as="geometry"/>
                </mxCell>
                <mxCell id="32" value="" style="shape=stencil(nVfbctpADP0av2pWe9dzmv5HZkIKUwoZQnr5+8p17aJdfAh9M0ayVkdHR9ohPLxtn143g3dv59Px6+bH7vm8HcKnwfvdYbs57c76NITHITy8HE+bL6fj++F5+v36NFqOT9+O38cv/Jz8PMU6Onn3a3oRKMc/Lz5P5vvd4cI8E2dj7qnKujkzeTb2TOyAfaHgjL0jB+z1c7k09r4C+0y53nGeoPBIk29OwF7I2XwzFYBPzJQsnhyoAPxTnP9eDsSUPChYIG8jBKYCHIp+z0IaHSWQQ9GcbYRYISlqohiMQ1KUeN1BHBXrkJVXoGxSydkcciLBDn8xWRwKcQEOQt4SoyhTQdLq0EQokUKGDmJhVaBTwA6W2wq0wxGKzUGBvnGkaNktEVZaYa22DvoGwlrJ20przIqOVCil1qGgCJnE1kE/IQjWTEHapBNiayZnI1TBKCWqNoeqEYAIyELmC2o40NPSyXYJJDiHbCNkhRXXgS35cp7puOZQrZBpi1ZMjcRthAS0WInAjUMlwQ5N0kWnG4JVujoUqN7slnG2lDrME3ItRG2aulLGPdpMFAmUkPR18q2l8Yh9lWLXchHxW0Fphq7DY/0/PFw75oQh/7TFxLJD1RJtPqV27FAtA3TSQcqN4rs5reuj2s8tthA2zJ9YWwaC7aFxPQARdN1gq2VR5mJe32dUwC1KMc36+cGFSR1QS/QbWSx4hetWPl037tsp1SGACP3SeuNInbpqzqjlup07RiwbrQaoPUP7YIkX/TzDrtq7WeWWFVHmHXDFPjb2CQ5pN5/2YgWNAM9OJEeSwPO09gz3ye48nOF22OXLHu7cHZ5LF32sXBlKXc8GKNd3XvBumuvDv7vky26/n66il/+3d099Nd1bw+Nv);lineShape=1;strokeColor=default;" vertex="1" parent="1">
                    <mxGeometry x="349.65833106213285" y="357.6975196420178" width="56.92761527373165" height="6.925907604303916" as="geometry"/>
                </mxCell>
                <mxCell id="33" value="" style="shape=stencil(rVnZblQxDP2aebUSZ39m+Q8kCh1RWlTK9vc4jHJncnLvQUi8TW/tLF6Oj51TePX1/t2Xu5O6ry/PT5/ufpzfv9yfwuuT6vnx/u75/GK/TuHNKbz68PR89/H56dvj+8vfX951yf7r89P3vsLPi16VlLuSul+XD1oklz9f3l7kH86PN/JF/CwfvLR8LJ/F1Vm+SCHrJ2mzfMwSElu/pEk+BQn+WL5KmNfPXjQey3snyc8KVSq5gFfReYeSxDuiECTPJq22pxKFLNnNCrYEuYOqVNjBliBGNS8n2KGOL7sKQaXMCs2JYwpVXJkVzA/hWCEG8REVKtkhFmmgoOLIDskctxyJpUKyyGx4aaaQHd7BzNoaUTC/zsFnjmtsB/PrfKQapZJ0yG2E2qag0ohZS5QCd3DDDPsKbcmHJpHcwQ5QCyp4Et5mkwQ7FGpWszrkg90qEBAzv9b50nm71b6CxdJsVoOZzHYIiJMpDmQ72qEEBMrEFLyE+Q7RU2Q1K4UZWkMSx8waMDQMbR0BsurFgYLtQKLV/Fpns6of9WJfIUibE8hb8JHwNr/CpQ1tC9khR/Hzkbx9IWZNVfLsOKsY7NJW0DwcyY0ivI98dUDvlqLUSAatCuVBEsk3w26sP6Oo7stHUf8P8toQuatEAtydMyQ8P5NXCQHkWW5ayHg8P8NUK+gNiuGIkQPKk2bMtghKzF9Ya02+kvOHUSdv5DM5jw7w3ORtBZL3uqSMDiDYt88gjJu8lX6yvtX5BOYsJIW3Kn/1FrO+Spxvm+nhLRkBpyVTXzkFcUdqX5QGoE7JdRpxeF09MHYgqcBVlSCVUf35MIXS0jKS9OomRwxp4nOSG6oxErs0HhZlnl42Ay4HidyWs3EsSxhKJQTZnoWMwI7aeSNfaNZqRHlPszBFvC+rEpYmSxYyPr1kofmLEXa/gnhmoDy6tmuwMe8qJkqijC8gWUqDn/0PcbME2NLxFnHD06s8a5bWAmSUm0GaItVzElnBTYjIjheItsozrtoJwL/YxwgGVjgKJUZgAMN5QYkV21svhcgbAwP6r+PDvnxDKIx0xpATdp6J1qDikAYXSmBKQmLeaKr3+cOCtazHsyZTwQGJ1opapCy83PEODDrhDgGEhFlDBTlzHRXtKxQEXGt3mNfa0jpHQ3QKEw5rRh9WsTM1DAxrI1lH1ZaxijU0DFpaRi5cEm0WWsR23qKlMEd4ZMMWLWyWZH0nVPo+fOLRh1OSRmuN9Z2aUIFxg953ukWBZWjAJs8CmE0Ycl1mSUox0jADmKV5prFB6TZf2xTyKKJH4y3oAyy62NQw6agym0KjCrHgHOYmRfY1FFs926KxSl4WRzReqxT7+Z6EjLhkLCbdTCQhrNgkOFIZ9WsfNwqWc/OcZ9TLD6Z4E0yezVWwj6iJTw2X8bAb46ujjnX2muUHSx/FhLZoZ/IeAy9zwuPGQH7D4a2iHsgDbkeluO2w9wi8o9eBPlutKnQkFJB/dUJC5CN26J2dU3nIy06oSFqad2B9Nxj0QfxAL6T8xSMjH+/ybOa83NdRlChYonqO8kekxf780Qn4bO/uWEXD/qB7kI3MsRvqMyV6HhyjZl4wx2T5Jj7ZQ8ffHxXtx/VF8sP54eHyoHn7f3zBtE+X18/w5jc=);lineShape=1;strokeColor=default;" vertex="1" parent="1">
                    <mxGeometry x="352.3904095446921" y="370.2642947373928" width="62.16929590712141" height="35.26374750315938" as="geometry"/>
                </mxCell>
                <mxCell id="34" value="" style="shape=stencil(lVfLbhsxDPyavRJ6izqn6X8EiFMv6tqB477+vtwutDW50RS5bWROKHLIITXFh7fj0+thCu7tdr18Pfycn2/HKX6aQpjPx8N1vsnXFB+n+PByuR6+XC/fz8/r369Pi+Xy9e3yY/kPv1ZcpNAWUHC/1wNH3v09+Lyan+bznbn31t47ygEAmErUgEqFx4BQyGkPIZFLY0BMFLWH6IjbGJACtaABlRh4yJ5KUYCUqOQxoDiKBiAeQJYKU9VBJ6YGPNRCNVkACpoT+WAB3o8BrRA7nSWmBEqjVapZAxr2sCsNYaaALLVGcRd0BrUkANZB50IRpNU7R05HXTL5iF1UBaiRGiBCAEmniUP3OUpT1R6Yex5GRJj6bqG3yIjqpj20SBmkSQBOM9c8rL6WKei0cqWMgk6UdQexNHWBAM+ahwB7dAEYpmMv4BHA6EzO5CoEsCnXCrVSspR1DMlTwz2aNEB6lBGgUkoWAJnm3i93V/KIh9bbZQOULoYjQNHSlyMVFEOz1VoCeRRD61K6lYbvM2Z4Jd1AtfVEjwBOA1iYQUEzBdOi22AdEWfmrrRoQsX3UQDv+uFODIczyGsXUn1AZ5YpZ6KWsYjnqJGNZSrhSR2MkqUuhqNdIOsYuPW59/62Ea3eS+IKuFKQptYNUbdqeX8GiXzvlAzxsGxgOgZRsgKKaRezdFwFvPnO6mYfoPB5W9zLMgO6wVHVLKdN/Qf2Ud9/WTQABa7fdrOPMKG7HUB20gwUye02VjkBZe2spvrYKR/lx8xCKjj9ZpekBG6/jZjtNlAnpHjsgwHl8oPvi/+ay8e/p8zLfDqtL6H73+3TR47WZ1N8/AM=);lineShape=1;strokeColor=default;" vertex="1" parent="1">
                    <mxGeometry x="363.4206122022412" y="420.6873542241784" width="41.16152544070047" height="4.405614018369022" as="geometry"/>
                </mxCell>
                <mxCell id="35" value="" style="shape=stencil(rVrbchs3DP0avWJ4Awk+u+l/ZCZ2rKlrZxy3Tf4+2ChcL4HdI2Wmb9IKZ0kCB1fqlO++Pn78cn9K4evb68tf9/+dP709nvIfp5TOz4/3r+c3/XTKH0757uHl9f7z68s/z58u3798XCSXT3+//Lu84dsFF0jCAkrh+3gQ088Hf17En87PG/FEUox44GPxQtKteDgWb5TtZlI8Fu8kyYhzPhaPafw85CNF8PrIVLqRbxXIC5VZOYlSAbqMVNnIC9i/arPP789UBMgLxXn/hTJ4f45U4iSvCgDnzYV4lq/UgD5zI573L5ANJYzlh3wfC+7LZ8ozH6IaGC3A1OcFlCIdaKiI1ZByJLRjAAd75NgoAJ2yUmbmhLJKwKG5DB2uJIrQg5mJDevy4OE+oFKfaaR2RrxjodxmgHoqWqFTnu2Q0wgcu4CqYcR4Ao84dgT4teMVIJDb1cVFZSOiRo3DritA6QgMpwCe2VoaVcAlBdT50IxjtQKaAZRh+0PAbGk15ZUttfkMVQ0HqFHXiLsCGiW0ghputkOLUK3KpT5bupXx5AhgUlpbvfzGLUm8plaetySFKiKfMscAGmYrU50N1wMMM1V9ej5D1+CP6K0uOmupZ7glNZOY4F2oodyfKRkAw/Tc2J2Bxyb3AVpesAMAaigRJFtAAWcQpUZyAKBWSTZqLADgD5Kp+S2BUClsk7QCGGhJqZbcCgwsLZ2CA1SgJeWmNAcAWuqJqlNrBWfoa6GzBQAX1Z/FaamC2NrF1pILW9GWZKSPG+nd+4hzW7ZiQHUrII9TgLVDHT54BDCVgAJQUuwuGPeGLb0WCitAKAEXXQ4dLUCQHfp43wrQJ9jSNsx0GAQWajhARuSTwZwNIACfViWalKWvgGpttnRQQMAANnGp4TM0Z4eKPa5REwsI2A7BRW/GgOLyQ8KGEwdA/YOaKYpbAW2p70QNVDos/hCclq64aLUAFARiCLaBWEyN2KdLOJdDTZACWrAAVFa+O9jGIa7ESpuC1pbifwL4BNFhX7aTgvpg/K1J7grAp9E+6vdbE3WHA4edUqCPqu7WYqPDRm4pZ9yhUUbZKZhWxh+WZG5LqB9oYi29cZHDujL9HoJdYambAh7R9tjU0QpuULdkSmCJ97ZqmxdRC9Gd6QR3NZrJTfXQIMG1SbE+pzkFAdgO4Pr6ZB9Q3JYKRdTKJVfQJHyGOCLdptFCBc3SXc5bkg5z+zI8MYAGx3Asdqy2uC3qkPV98xnUbRPgkgKMWgUPTxRgcrt6IcrtO4CKB3HNFmVK+I7OoEXZfOjaRrw9AhiPU3ah6kENl8wsJMC0uADMPKdeBcxn4DQa1EPA7NNFsKVdcVwytrTYqVfucCitAHPorLZH9G526pUL7MGX+ebMpRyxWnnEuXW+KfDigYudbyaGiZezG+pmWJNxtIOHZQoMIl9xjVbE4b40lxYbvJwp6yBjMytHsbUkW1fGPAbJR/cDYQ7GMcIpsDLH0DsGfCNSRsOwRm9YfStxoglLcPCtP5uGusIbplTcgHZwd18+2nqMYRcXxVYyZVyx7cuzl0fxJSY36IfloSsx8IWXM2/GlLaXkxl23a6iyuMSYlfcXSAkWOEF2z/jm6gwQtq7OOpGgk0EaSx3IB7tRSZqjoJNxgleCruGc71FuFUcDW3dZuIVM0V7od2guFFkgIx0ZgownToS6O6g3n/r7v6quH54/5vAw/np6fIvg+3v9m8F+ujyl4T84Qc=);lineShape=1;strokeColor=default;" vertex="1" parent="1">
                    <mxGeometry x="435.37028648870813" y="339.3995181878993" width="139.56172162512956" height="79.07416085246794" as="geometry"/>
                </mxCell>
                <mxCell id="36" value="" style="shape=stencil(lVjLbhsxDPwaXwlRlETpnKb/ESBObdS1A8d9/X25NeSsuN4JcnM2pJbkDEfkbuThbff0ut3E8HY5n75vf++fL7uNfNnEuD/utuf9xX5t5HEjDy+n8/bb+fTz+Hz9+/Vpspx+/Tj9mk74c/WLgXKavGL4e33CFOr/B1+v9of9cW6fSUb7RNLW7SWSxsG+UWBg3yjxGE+kBAJKpb//5lColHWHHCmMDpZyCsBB+79vDplU1h1KopAHB2ES4KBMpY4OShUkrY3yWNUkpHndoRYKMjooKXhD4w5Td7C6JVDWJhTGkKxuEoFDpTyWNTdSQA0OgcLoYZVmgFwr1Ma6ltqPuF+mSmksk0aKoEw1UtbRIZGCMmn2yKn2d94nkxKPQNRAAkKysruQqkDkUiUekza2oDdIpeocGkXU1AvgjF6IfTFSGTuoGdJAZqxITmUaFVDVTIW9fVNQI0/uyR70W/Qom30GCTPFETPrjgryDV6SmlIDGC8BKB+c70jXMgQsLFQ+QT0y+F2+Qg2IhRBnby+I011JZvacQJf1Lp/Zo77XRb4C297QXPA5g3ia72GrfwZ8blRdvgXyf3F/tFtGK/Gri9+eACHVzvYZ/xPgQ/ESNPUXON+qN8YzuxxWCOQbwC4bAAAvBKh1Cq40QEm+QBE2WKgegAjP9wJUIKFNIBYEQnMdd8WfCy4QxNhnrFkDZHAFfNaeqx+J7G6OgKFGIRkRrhm2pCSvQXZPMuiZacQaMaiYczYxOZZqgaQrhsLYxopDKjZMjzkUTGsbP2TEodiMBBxsFHDKazNXBSFZTZKbA2/idD8k7cpwc0iw1TR4aqQGxctSTG5nKf2I+w7Ry5Fhj4Y0iziOZRUrK0jaZq7gHLiPJPcdom9QIzxK2jYIdVsLHuBtU3Pksx5Ed7INUX5VSzBp1sWtTwVoJItfWgpco2xTjI5J8BJk9g2dIFPNPo2bow0t+Hx3i1tC6M7hPlPeICNGmh39FMu999bqmUf7AIc6g7N4e7TRcfZ7QeiL8Bof2J+P9NT4KOrsGTCaW5+Z3u3REPXpbyEf2tuP9w8vL/vD4frdZv5//6HGHl0/8sjjPw==);lineShape=1;strokeColor=default;" vertex="1" parent="1">
                    <mxGeometry x="547.8815160543212" y="387.91732314800663" width="31.409774041988783" height="44.90637281787855" as="geometry"/>
                </mxCell>
                <mxCell id="43" value="" style="shape=stencil(lVjZciIxDPwaXlW2fD9ns/+RqpANtdmQImSPv1+5KBMsZRrmDRg1o6tbsjfh7v354W27Yfd+POx/bv/sHo/Pm/Btw7x7fd4edkf5tAn3m3D3tD9sfxz2H6+Pp+9vD92yf/q1/93/4e8J56mlDmL37/RDqOOX7yf7l93rhX2kyNq++GX7QjnM9oVCXLb3jli9IJN3AMBU3AxI5NAbEvk8AyJ5BJAYlEuBQl4GsCNXZwDDJDFTChqAXGIbg6eCAJVC0IBclgHyuLEGNFAHyXpqa2IIjZwBMMhSlMdRA1wAgPRF0BW4FCvltAaQJEQTgwNZSomqnwEOtndqFGeXOBDXZUA2fPCZWgOARHFOqzAEUTQXrRk+Yg1wWjQEwMClwlRnAvlADTCumEoLIIMslUKlaUAEuledbj4BMALYOgRygHH1qxgcA4Aob9KABHqpnfl1mVZQuJapzi45WIYmSpmVPZKAVinO9gxbtTUte21MiyX7rPqokgc1EEBTDlWcIQGUCRAdBQwoMxeSJw86VQA81yDLG1CSKqW5LXK+VjXVR0JYRn2U9WzIbdBpCeBn8ojoFOSSaNJMz1THiFwCuDkG0fKKKh2pqgkqaUB1iNTmOnAesrbkEs+tIboKuztpthVKKIRMSbPHAUWSOoeZDQ7OKmkkVgpGGbNZzQWRD/T/TW89MhYaekEbG8g54AQ3Bu/OEV5skwkrRp07NZah40sANdvSlapVPXmECx4pRh1T4IJtMIbVADMXahxCe+PkEQAK2s62mmCv2unZAaAOdj6LSxUEbTcAAWQEsDFEKMR2i+lpXbUn1QB1tW9iRQPQFiOtpignAI/eII8NAImADCevgq5jWny94GZdONE1dJSxO3cf86D57FbfWb7q3HANYE4m3aVVZ5+uI4Bx9nT1qZ43nt/65gGyZE+IF+p54yG0CzQ6hJpj7pUg7EG6zxgQhD2qCwCtY/YyQKYkcsleN0i7ZgQwFxoy55FWmhsT2TwCaj4tGiLnaN0zNz5iXwBBPUVVAw+r7Mfty1kAMBecZqcoPfLfGRn2UFXdeHreqoTeIP9mZZDp6cBiaO15cPU2f0QBA6CZiTe5sffdlk+RM3Q6N/WK+FbF9IOIWYH2624Yr9vLh8/rzKfdy8vpNvTyub7+lJ9OV6fh/j8=);lineShape=1;strokeColor=default;" vertex="1" parent="1">
                    <mxGeometry x="715.9863892327689" y="373.7642332746897" width="84.83092283229581" height="6.200453686693095" as="geometry"/>
                </mxCell>
                <mxCell id="44" value="createTwit()" style="text;strokeColor=none;align=center;fillColor=none;html=1;verticalAlign=middle;whiteSpace=wrap;rounded=0;textShadow=0;fontColor=#FFC6C6;fontSize=25;fontFamily=Comic Sans MS;fontStyle=2" vertex="1" parent="1">
                    <mxGeometry x="792.25" y="379.96" width="202" height="66" as="geometry"/>
                </mxCell>
                <mxCell id="45" value="" style="shape=stencil(lVjJbttQDPwaX4m3L+c0/Y8AcRqjrh046fb3HdV4iklJE+TmOByLy5AcahfvXp8fXva74F7fLufv+9+Hx7fnXfyyC+Fwet5fDm/4tIv3u3j3dL7sv13OP0+P179fHibL6dOP86/pF/5ccV5yn0DB/b1+0ZoE9/+br1f74+F0Y58kRG2fpedt+yrJ2AcJddveOykaUJt0BoBHTQOyeOKRb1KDBjhJBDDlKCtAaeIjASSJ2qVSxAcCQJaKBsx5XgVEZMlrQJDkCSBKchrgaJZikahdyk0cIUbsC0Ae3FpnEjzWWcpBeiMAME3HkJ1ExtVug05VCgHAgaK7ISVphQBQ16oBQRwJOiNLmnzIWyXUQF29TmustHBgTtcxxDTSsA6og/0zINBKly5Nky90Sr6axOkY0CGd0LuiTDqtwdE6NC9Bu+QLB2SJBhAlkDpgLFqAo4OyFzspMWUIMzrK6o09q0Kf2/HdPrDfb7ZqXiKpQe92JkVxpMiwb7pmH4xh52wAVTJ3qCVl38c82AzABBx4BFgMuhHAiZJoybouMZZRISQCwC0AjSQJJDLdDwAbeT3bkYcYHMsqHNADyfsx07YAWT+h0V6GfdK8KJJZjpJdz2n09lbEps8gMFjRsEV0St1ojK0StEVfki2FGldr7znrsvWn8z4LZjZKZH2P/VJMPtk6gL3ZH0Uqb0vTBJ2KI9hnvfZBuMh6oFmHQGlPZjsAwVAaTcMo/WlAGCm52U9MpLZupQumaSMsakWKztJUBlK2hpyYJyDRxKXabR9DI7KFBlltiASN2NgT/Fh4M/PcGOHrwgKVNq0P2coAxUpIaEQWdImS9Q5JbQiydYCzMUBzMpGaF2oqRzq/crI7YRKVpIHgQDUyuA99tS6DqwRzv2ARkqCRddPSk6hkALhkZnwdu3T9WIDA0y5NNxg7eJJd/jWMq2wd4O0YBn8ZvbHGinlCpYoQ+sbekZ0ebZgRRTcQmpatKmjYYI7zOnpwHTALnHkWey6D7S6ctjW7d0Z3zfZ1nOvrIY9VNttjG5GIgz2cb1TiesQLTdjp9vT2/JpUIhkYbsiz2b4NXm3Yp2WCyLiANtAVhtxgfeDssICccSShC43dIz3Knd0iPdBd6xb5RMao/7YF+ji5N+rlFq+nGuXD515nfWyPD+/vzp4Ox+P11dvt/+27Nnx1fU8X7/8B);lineShape=1;strokeColor=default;" vertex="1" parent="1">
                    <mxGeometry x="983.697329058939" y="388.5315725728294" width="73.4219831955997" height="27.426023057972344" as="geometry"/>
                </mxCell>
                <mxCell id="46" value="" style="shape=stencil(rVjJbhsxDP0aXwmJ1EKd0/Q/AsRpjKZx4Dhd/r6cunItKvPqAr2Nx3wjLo+bNnLz+nj3st1weD0e9p+333b3x8eNfNgw754ft4fd0Z42cruRm4f9YfvpsH97vj/9frlbJJenL/uvyxe+n3BCuS0gDj9OLwJV+fXi40n8afd8Ia5UqhPPZV08FsrByUfweY4UkpMPAciXWf0Q1+WFKXv9gwL5NtvbgP6pUCmDfKTW1uWzUImDvED/FPPPqE+G/ilKYdSnUAL+qZni6E8lBvprJNXR3oABlfJocIyUQQQaU8wjgHvM3wco5ZFCMRMnwNFw5lhHcCXJ4IhMbbTaeKUgbC1QcYCG3ZSpjnFbmAUCp+YUGYlh1ALMqM0HwrhVgNHVmMMjoFFFXGKSMRBVKYJiUSq18QRNJIAbpnEbuWGRKQgQSEd6t0oKVMqN0phvrUFqZPueY1/AJSwXiuqPqICvOfU4nQEKM8KY4CLXjEwIwL4qtUQMQm0AcYBICdnAvW2cQ62QfWaDOG4UWCnNS47fRibEPotDcCcwrPUWapfUiiuTkcnbIL24rdG1Vm/D7/61lhBavZdQpAtPXsKFyQBlrDNLgQbUMACPxdW4pIAaZgNPOcoogRo1l6NKDZFPKTmVWm9ja9So7AGQGrlz8wIQQOCM3nUyWnCKqjshw0lmSVFXNRgWVwO4qmHUQLOe2RAcl0ov6P8HYNRwXqqBEuoo1rNGQBE43lpLc/S22DMAVLNhdGvS3vbW2qifHRocT2zEkrFUimU5yAebHdzMukzJaMSKPg6cuqPfP6F0r58BAo3Waf6xubiCSFer1aMNsfWJaG12cB0o2uiLClnwKWq7iuIUdVOizZUJAGxiiw5gnRt4aSGCWx6kl7Yrt5kosAPN65IBCnDrvI8tAKDSvPAtKiFqeLKaPOon075q6wAq9tzz/UIeEclGyujl4fbgFybbZ9CGFfxoZQuTgGwOffA6l204TU6rTIUDwyR+5ux1yiRIhslW6aXsOldyz4crI0UJXS14ItgmD0z9x3uRv4rbw58rmIfd09PpBufyf39lY69O1z1y+xM=);lineShape=1;strokeColor=default;" vertex="1" parent="1">
                    <mxGeometry x="1035.9484934528518" y="379.2982078059897" width="41.3187130635248" height="24.483397430338982" as="geometry"/>
                </mxCell>
                <mxCell id="47" value="create&lt;span style=&quot;background-color: transparent;&quot;&gt;()&lt;/span&gt;" style="text;strokeColor=none;align=center;fillColor=none;html=1;verticalAlign=middle;whiteSpace=wrap;rounded=0;textShadow=0;fontColor=#FFC6C6;fontSize=25;fontFamily=Comic Sans MS;fontStyle=2" vertex="1" parent="1">
                    <mxGeometry x="1045.25" y="377.37" width="202" height="66" as="geometry"/>
                </mxCell>
                <mxCell id="48" value="controller:" style="text;strokeColor=none;align=center;fillColor=none;html=1;verticalAlign=middle;whiteSpace=wrap;rounded=0;strokeWidth=1;fontFamily=Comic Sans MS;fontSize=36;fontColor=#FF8000;" vertex="1" parent="1">
                    <mxGeometry x="271.48" y="623" width="224" height="59" as="geometry"/>
                </mxCell>
                <mxCell id="49" value="валидация" style="text;strokeColor=none;align=center;fillColor=none;html=1;verticalAlign=middle;whiteSpace=wrap;rounded=0;textShadow=0;fontColor=#FFC6C6;fontSize=25;fontFamily=Comic Sans MS;fontStyle=2" vertex="1" parent="1">
                    <mxGeometry x="470" y="619.5" width="162" height="66" as="geometry"/>
                </mxCell>
                <mxCell id="50" value="routes:" style="text;strokeColor=none;align=center;fillColor=none;html=1;verticalAlign=middle;whiteSpace=wrap;rounded=0;strokeWidth=1;fontFamily=Comic Sans MS;fontSize=36;fontColor=#009900;" vertex="1" parent="1">
                    <mxGeometry x="246" y="676" width="224" height="59" as="geometry"/>
                </mxCell>
                <mxCell id="51" value="endpoint&#39;ы" style="text;strokeColor=none;align=center;fillColor=none;html=1;verticalAlign=middle;whiteSpace=wrap;rounded=0;textShadow=0;fontColor=#FFC6C6;fontSize=25;fontFamily=Comic Sans MS;fontStyle=2" vertex="1" parent="1">
                    <mxGeometry x="414.88" y="672.5" width="162" height="66" as="geometry"/>
                </mxCell>
                <mxCell id="53" value="" style="shape=stencil(7VrNbt44DHyaXAWJ1O+5232PAk03wWabIk335+2Xwgc51sgeI8Ae9tBbYnP8SRQ5HNK+0w/fHz59u78T//315fn3+78eP78+3OkvdyKPXx/uXx5f7a87/XinH748v9z/9vL84+vn2//fPnXL/tcfz3/2J/x9w+Xicuso8f/criQXbxd+vdk/PX7d20eX42QfXanE3jvNYB/iuX2Krs7PV1cTsffO43rUn9vH5JLAftn6Y0D74pKe22tzMvvTLhRin10rk30ITsmCNLoWZoC4xgDqPPxCcp5tQZyfjyxkegYaXKwzoLmcCcC7OP+CbG4+BJgTKwB0xO0pYPaSnTNbUgf4GVBcuVgSAJorZEm26apzZIeRS2fnUGa32lEKD40yx54mmgxanJ+9ZFcKO7jqUpoBjR6c3a7zkiyhIgk+u63zkmJ0QrwUzUvzkmJ2hWRcNEKZ8yG24YYzyojzklIYV44BGRMo6XDD2ZLyHEspO2Wh0QaJbgA7OAYw1p29lCoNPqkuzMGXmlOWcTryaweI5ByMI6IuABLeRltYqpprZEnGpHF2q1WjSDZtXLzYJ3bQI1n29uwUXJZlPcRFgtlm9owAjE/C4iCSzh5rrdmz9fvBJjt7T+2BXizomLgwe3h+cY2QhXkjo70Sf3okVEuzykJ0lPqdPYsfwbJm9oHEjy5aJI0IPIm3nNC+Ev/Ucfq79TCmC4pl1gCFVP5QnQqeQGVlVg9CSFmZLSNidjlAmc67Ngd1FkpcVlQVANElVgQj0ruJaGFFMI4o2ADtSuMBoARKjX1Js5eKxRaTnerKHNolcRUpQw1tgMqFbXB+TrbquRjxQ5VuAKG/IIu2qGmczClgrvy1uMAObisXG+BCzSsyRvMuM62dUb00cYGpl4BeaiYKSYrGMm7vAEynJsFNN2upyB6MI/AXootkSb0n1AVANt0T0r8LUFEqXACKuFrfBSjYVXUACb666FQDsOJT69C9GyANPXMIsNupIYCV82Z7EARksqRWl+Y2j0ccA7Z02QESCY22NHq2SCElq20ScAdgmqE11Km2K5aidhtopu+KuxVkhgEKOzhTFYKAxrwUcWjQAYS9LeXTuiQG2GrmDsCkVVu0kvmN0YwBoGQZIDAvBSyK5mhWRQ0AXZU5mp6DoNYwQGChoeN5uwRi4sRuhwVA8yFjC9BTlO2hLNGaBrWdhXeruGnlKVoCAljwBb/oeltlZmsyFoCEqJz6rB9ewtWzTSztrQGYYLI9rizAevpO1jBFe/PDf4SoeYm/bSp1DAhOFAFs0HBQ5hpl/INCygEHpfoCEJcs5fObvLSJF4DeVS0lopHgSH6UzT35salyWgTNVlqPAR71ek90pkQTzsV7tWdDXD/q7J6ayDnIxr47QcOkax+XwB5kTGmPAQEHb6amWRtkDT401CaiAusIVkAeAX8KgCZF6Yilzxzmk7YcZEXINo2NFh+LrVOlwiVTHyPMB1fiGBydAuZ8sCxnL0FkeUlUPO0IDADS1WiBjYllC7UNkPi4PqCaNh5hGRcKDqKz0OFMUDy4HMYo4pjvUQsYUbHXLD+njT+njf/vaeOBPZs2CirPtJXFY0BGWZgifQHQC0hCANNHkvCNgQHYyyRL4pQRwJJsndQlHXr6bEKEb26EikJNOCEyeUKnXIqvPWKh0lYFM9P0zMUsEMg3Ki9RDSdE8YK7CqoXrWP+eFqilnelrLGyWGrL21imImUZRPeR6IW2mJdkKcXexh4AMp3fGABKgvBR98phxjp0XC9YlwN/C2gA/P6B61SjsTaHRrhQLwl5yYhH2EmX5XOGi0K7xeam8YZ2OEs4yNBMB6wrBUT+HUDDLk9oYYuC6w90ZGD0ABNiT4cYSbEy87bW6irEtR8OOG7wBLspT7VgLjjBCNTexCtwhdA6VcLQBW/29PlGLXNa6lWPDdJUqRDpah2fz3il2+M3VayL6uvBb7wYqxRB5RWHA878A/GZRoCfnRd8/JPoaN7s8XsNyii5LUqQ0m7vZRLak/W/+5u8S3v74+0DwC+PT0+37wf39/GDQbt0+9hQP/4L);lineShape=1;strokeColor=default;" vertex="1" parent="1">
                    <mxGeometry x="260.4661325024024" y="629.9263408172426" width="56.82066229917317" height="114.23686520105272" as="geometry"/>
                </mxCell>
                <mxCell id="54" value="" style="shape=stencil(lVfbUttADP0av2p2Je3tGeh/ZIbQeBoSJoQCf49c122kBNl+c9Y6kXT26OKO7l53m5dth+H1fDr+2r73j+ddR/cdYn/YbU/9WZ46eujo7ul42v48Hd8Oj+Pvl81gOTw9H38P//Ax4mqD0gYUhs/xJAOWPwc/Rvt9f7iwbwEiKfvIgNEBIERWAGRIHoCgZgWgGQ8JUAOYIbADyJCqAiT0QypQkiYpQAoOoELRIeUK7HlokFEBSgZyPMQQIASFEKaDd3MFSGfdGLITk0ijGg8Zav0eUCoEnbXwkJ2LyARUNEDkiN8DuABqtV7wcBNBEbhZF5wcYgtksklEJ6YCMVuW/p7cdgDR5ExQHFaDTblFtxzYKqmKGMmJR9zra67Z1YV0iKQjqgmCQylHaCYkqWgnpCSMhzWAQsC0JiRJkeKapKXJmOoZaPWajChZe5i5N5FZNcLzhSH1XnVnHZTndICKQFf16UlbmlYyHcAvHumjeWV9/qN9YQuQ+mlX9ek1mSgTq1maqkMTXkUkJeWksLYRr7c3ypsbDYBaFjOzBwFXDTepNV3NM9OTpzpZOJ6zXRhm5n+x+8LcgjHd/sINRgSEWhD+ihSjnWo8bQO37eW1tpex6PAzTAR9AaIfp08IQawFF129UYKqCyZMfeP2/SbLj1/yie1e4dtnhmj/34un4FSuy/ItbWqzy/iU0YK6A/n3JYPCbBS+Htau5PP28vB//3/q9/vx8+Hyvf1ekKPxW4MevgA=);lineShape=1;strokeColor=default;" vertex="1" parent="1">
                    <mxGeometry x="628.3348556099022" y="664.7396922925996" width="4.796004460999289" height="30.194541020083697" as="geometry"/>
                </mxCell>
                <mxCell id="55" value="" style="shape=stencil(rVfbbtswDP0avxKSKOry3HX/UaDpYixLijS7/f3oGfZCqT5NgL05Co9E8pCH0sAPb/un190Q3NvlfPq6+zk+X/YDfxpCGI/73Xm86NfAjwM/vJzOuy/n0/fj8/z79WmynL6+nX5MO/yacUKBJ1Bwv+eFQNX/Xfg8mx/G45W591RiY5/Stn1wFK29p4DsM3Ex9o6c27bnSKU0+2dgH8Oy3WJfKOdte1F3rb1nEtkGJPU32wTpSgSAQs5GoC55cEJOVKoFVIp1G1C547gSA5KrULRBsycPWKvKmmWZE0kAgNKWUVQiEaBSTgYgWrmoUJ1rmU7qU4FHiE1TzpQBERpEk6aSSQDVNVEOBlAjVXRCpGSpVic9iiGQuBaQUW24tt8mJ3kbUAqJre9pC0CE5iRYqsvaU+8D0pLElQc9AVRfD5BCFRRT71Jcm/DGoFlPQDyox5Y4DssWNxKnPSqoR7vSYEf+g+Kz5a3aycilrryjautdDaTqKaD43uvRsPT5jTKQI3lQrr3QlLhkelPKbBBKTUEAaanWM6FYdnJ8lYf/hCj6d6M0Fc7FzORzGwUiO8kyx1eAQJckU7GAgpVG3OLxCtCuAmqpsz02Ap4ogBh0SDlLXcqUQAz97UTHfQZd2l9/RGc1iKG/X6mWOQDo7m9TntGFiWpu7R2KYKmC1T7CC59vVUZprMAf115mosCRqCXQiJJbSNywbxSGGfrf2SvnKP+dP7qSwOzp4vURKp7m09ZDpXIPXQl631UDQ5W487Hwobl+/HuXvIyHw/ysuf6/fcfo0vwG4sc/);lineShape=1;strokeColor=default;" vertex="1" parent="1">
                    <mxGeometry x="610.9842108363268" y="676.4316090981208" width="36.19963436566033" height="6.941384070808486" as="geometry"/>
                </mxCell>
                <mxCell id="56" value="service:" style="text;align=center;html=1;verticalAlign=middle;whiteSpace=wrap;rounded=0;strokeWidth=9;fontFamily=Comic Sans MS;fontSize=36;labelBackgroundColor=none;fontColor=#FF6666;textShadow=0;fillColor=none;strokeColor=none;" vertex="1" parent="1">
                    <mxGeometry x="246" y="742" width="224" height="59" as="geometry"/>
                </mxCell>
                <mxCell id="57" value="логика" style="text;strokeColor=none;align=center;fillColor=none;html=1;verticalAlign=middle;whiteSpace=wrap;rounded=0;textShadow=0;fontColor=#FFC6C6;fontSize=25;fontFamily=Comic Sans MS;fontStyle=2" vertex="1" parent="1">
                    <mxGeometry x="376.94" y="738.5" width="202" height="66" as="geometry"/>
                </mxCell>
            </root>
        </mxGraphModel>
    </diagram>
</mxfile>